# Blender v2.91.2 OBJ File: ''
# www.blender.org
mtllib robot_bras.mtl
o Cube.002
v 0.250690 0.409670 -0.246501
v 0.250690 0.272570 -0.246501
v 0.250690 0.409670 -0.026798
v 0.250690 0.272570 -0.026798
v 0.079342 0.409670 -0.246501
v 0.079342 0.272570 -0.246501
v 0.079342 0.409670 -0.026798
v 0.079342 0.272570 -0.026798
v 0.250690 0.272570 -0.387376
v 0.079342 0.272570 -0.387376
v 0.250690 0.409670 -0.387376
v 0.079342 0.409670 -0.387376
v 0.250690 0.272570 -0.494509
v 0.079342 0.272570 -0.494509
v 0.250690 0.409670 -0.494509
v 0.079342 0.409670 -0.494509
v 0.250690 -0.083209 -0.387376
v 0.079342 -0.083209 -0.387376
v 0.250690 -0.083209 -0.494509
v 0.079342 -0.083209 -0.494509
v 0.079342 0.272570 0.087040
v 0.079342 0.409670 0.087040
v 0.250690 0.409670 0.087040
v 0.250690 0.272570 0.087040
v 0.079342 0.272570 0.198552
v 0.079342 0.409670 0.198552
v 0.250690 0.409670 0.198552
v 0.250690 0.272570 0.198552
v 0.079342 -0.073078 0.087040
v 0.250690 -0.073078 0.087040
v 0.079342 -0.073078 0.198552
v 0.250690 -0.073078 0.198552
vt 0.375000 0.000000
vt 0.625000 0.000000
vt 0.625000 0.000000
vt 0.625000 0.250000
vt 0.375000 0.250000
vt 0.375000 0.250000
vt 0.625000 0.250000
vt 0.375000 0.250000
vt 0.625000 0.500000
vt 0.875000 0.500000
vt 0.875000 0.500000
vt 0.375000 0.500000
vt 0.625000 0.500000
vt 0.625000 0.250000
vt 0.375000 0.500000
vt 0.375000 0.250000
vt 0.875000 0.500000
vt 0.375000 0.500000
vt 0.625000 0.500000
vt 0.125000 0.500000
vt 0.375000 0.500000
vt 0.375000 0.500000
vt 0.125000 0.500000
vt 0.375000 0.250000
vt 0.875000 0.750000
vt 0.625000 0.750000
vt 0.625000 0.750000
vt 0.875000 0.750000
vt 0.625000 0.750000
vt 0.375000 0.750000
vt 0.375000 0.750000
vt 0.375000 1.000000
vt 0.375000 0.750000
vt 0.375000 0.000000
vt 0.625000 0.000000
vt 0.375000 0.750000
vt 0.125000 0.750000
vt 0.125000 0.750000
vt 0.375000 0.750000
vt 0.125000 0.750000
vt 0.375000 0.000000
vt 0.375000 0.000000
vt 0.125000 0.500000
vt 0.875000 0.750000
vt 0.625000 1.000000
vt 0.375000 1.000000
vt 0.375000 0.000000
vn -1.0000 0.0000 0.0000
vn -0.7071 0.7071 0.0000
vn -0.9487 0.0000 0.3162
vn -0.7071 0.0000 -0.7071
vn 0.7071 0.7071 0.0000
vn 1.0000 0.0000 0.0000
vn -0.5773 0.5773 -0.5773
vn 0.7071 0.0000 -0.7071
vn -0.5773 -0.5773 0.5773
vn 0.9487 0.0000 0.3162
vn 0.5773 0.5773 -0.5773
vn 0.5773 -0.5773 -0.5773
vn 0.5773 -0.5773 0.5773
vn -0.5773 -0.5773 -0.5773
vn 0.5773 0.5773 0.5773
vn 0.9487 0.0000 -0.3162
vn -0.7071 0.0000 0.7071
vn 0.7071 0.0000 0.7071
vn -0.9487 0.0000 -0.3162
vn -0.5773 0.5773 0.5773
usemtl Material
s 1
f 8/1/1 22/2/2 7/3/2
f 5/4/2 10/5/3 6/6/1
f 12/7/2 14/8/4 10/5/3
f 1/9/5 12/10/2 5/11/2
f 2/12/6 11/13/5 1/9/5
f 16/14/7 13/15/8 14/8/4
f 14/8/4 18/16/9 10/5/3
f 11/13/5 16/17/7 12/10/2
f 9/18/10 15/19/11 11/13/5
f 18/20/9 19/21/12 17/22/13
f 10/23/3 17/22/13 9/18/10
f 9/18/10 19/21/12 13/15/8
f 13/15/8 20/24/14 14/8/4
f 22/25/2 27/26/15 23/27/5
f 7/28/2 23/27/5 3/29/5
f 3/29/5 24/30/16 4/31/6
f 27/26/15 25/32/17 28/33/18
f 21/34/19 26/35/20 22/2/2
f 28/33/18 30/36/12 24/30/16
f 23/27/5 28/33/18 24/30/16
f 30/36/12 31/37/9 29/38/14
f 25/32/17 32/39/13 28/33/18
f 24/30/16 29/38/14 21/40/19
f 21/34/19 31/41/9 25/42/17
f 8/1/1 21/34/19 22/2/2
f 5/4/2 12/7/2 10/5/3
f 12/7/2 16/14/7 14/8/4
f 1/9/5 11/13/5 12/10/2
f 2/12/6 9/18/10 11/13/5
f 16/14/7 15/19/11 13/15/8
f 14/8/4 20/24/14 18/16/9
f 11/13/5 15/19/11 16/17/7
f 9/18/10 13/15/8 15/19/11
f 18/20/9 20/43/14 19/21/12
f 10/23/3 18/20/9 17/22/13
f 9/18/10 17/22/13 19/21/12
f 13/15/8 19/21/12 20/24/14
f 22/25/2 26/44/20 27/26/15
f 7/28/2 22/25/2 23/27/5
f 3/29/5 23/27/5 24/30/16
f 27/26/15 26/45/20 25/32/17
f 21/34/19 25/42/17 26/35/20
f 28/33/18 32/39/13 30/36/12
f 23/27/5 27/26/15 28/33/18
f 30/36/12 32/39/13 31/37/9
f 25/32/17 31/46/9 32/39/13
f 24/30/16 30/36/12 29/38/14
f 21/34/19 29/47/14 31/41/9
