# Blender3D v249 OBJ File: robot.blend
# www.blender3d.org
mtllib tete.mtl
v -0.414140 0.443969 -0.529788
v -0.414140 0.443969 0.243914
v -0.422376 0.853865 0.243913
v -0.422376 0.853865 -0.529788
v 0.709238 0.466541 -0.529788
v 0.709238 0.466541 0.243914
v 0.701002 0.876438 0.243913
v 0.701002 0.876437 -0.529788
vt 0.000000 0.000000
vt 1.000000 0.000000
vt 0.000000 1.000000
vt 1.000000 1.000000
vn 0.000000 -0.000000 -1.000000
vn -0.020089 0.999798 -0.000000
vn -0.000000 0.000000 1.000000
vn 0.000000 0.000001 1.000000
vn 0.020089 -0.999798 0.000000
vn 0.999798 0.020089 -0.000000
vn -0.999798 -0.020089 0.000000
usemtl None_tete.bmp
s off
f 5/1/1 1/2/1 8/3/1
f 1/2/1 4/4/1 8/3/1
f 3/1/2 7/2/2 8/4/2
f 3/1/2 8/4/2 4/3/2
f 2/1/3 6/2/3 3/3/3
f 6/2/4 7/4/4 3/3/4
f 1/1/5 5/2/5 2/3/5
f 5/2/5 6/4/5 2/3/5
f 5/1/6 8/2/6 6/3/6
f 8/2/6 7/4/6 6/3/6
f 1/1/7 2/2/7 3/4/7
f 1/1/7 3/4/7 4/3/7
